<mxfile host="app.diagrams.net" modified="2021-05-13T08:10:45.750Z" agent="5.0 (X11; Linux x86_64) AppleWebKit/537.36 (KHTML, like Gecko) Chrome/90.0.4430.93 Safari/537.36" etag="QMQgV3-32Ykf__ldNxW5" version="14.6.12" type="github">
  <diagram id="mjgqmSHZGCYBxVDJmJig" name="Page-1">
    <mxGraphModel dx="1350" dy="810" grid="1" gridSize="10" guides="1" tooltips="1" connect="1" arrows="1" fold="1" page="1" pageScale="1" pageWidth="827" pageHeight="1169" math="0" shadow="0">
      <root>
        <mxCell id="0" />
        <mxCell id="1" parent="0" />
        <mxCell id="16TBc1RyOengqVH6E9E0-26" value="" style="rounded=0;whiteSpace=wrap;html=1;fontSize=18;strokeWidth=2;fillColor=#f5f5f5;strokeColor=#666666;fontColor=#333333;" vertex="1" parent="1">
          <mxGeometry x="100" y="130" width="410" height="470" as="geometry" />
        </mxCell>
        <mxCell id="16TBc1RyOengqVH6E9E0-25" value="" style="rounded=0;whiteSpace=wrap;html=1;fontSize=18;" vertex="1" parent="1">
          <mxGeometry x="120" y="150" width="340" height="330" as="geometry" />
        </mxCell>
        <mxCell id="16TBc1RyOengqVH6E9E0-18" style="rounded=0;orthogonalLoop=1;jettySize=auto;html=1;exitX=0.5;exitY=1;exitDx=0;exitDy=0;entryX=0.228;entryY=0;entryDx=0;entryDy=0;entryPerimeter=0;fontSize=18;startArrow=blockThin;startFill=1;endArrow=classicThin;endFill=1;strokeWidth=2;" edge="1" parent="1" source="16TBc1RyOengqVH6E9E0-1" target="16TBc1RyOengqVH6E9E0-12">
          <mxGeometry relative="1" as="geometry" />
        </mxCell>
        <mxCell id="16TBc1RyOengqVH6E9E0-1" value="" style="whiteSpace=wrap;html=1;aspect=fixed;" vertex="1" parent="1">
          <mxGeometry x="140" y="180" width="130" height="130" as="geometry" />
        </mxCell>
        <mxCell id="16TBc1RyOengqVH6E9E0-4" value="L2" style="rounded=0;whiteSpace=wrap;html=1;fontSize=18;fillColor=#ffe6cc;strokeColor=#d79b00;" vertex="1" parent="1">
          <mxGeometry x="150" y="260" width="110" height="30" as="geometry" />
        </mxCell>
        <mxCell id="16TBc1RyOengqVH6E9E0-6" value="&lt;font style=&quot;font-size: 18px&quot;&gt;L1 D&lt;/font&gt;" style="rounded=0;whiteSpace=wrap;html=1;fontSize=18;fillColor=#ffe6cc;strokeColor=#d79b00;" vertex="1" parent="1">
          <mxGeometry x="210" y="210" width="50" height="30" as="geometry" />
        </mxCell>
        <mxCell id="16TBc1RyOengqVH6E9E0-7" value="&lt;font style=&quot;font-size: 18px&quot;&gt;L1 I&lt;/font&gt;" style="rounded=0;whiteSpace=wrap;html=1;fontSize=18;fillColor=#ffe6cc;strokeColor=#d79b00;" vertex="1" parent="1">
          <mxGeometry x="150" y="210" width="50" height="30" as="geometry" />
        </mxCell>
        <mxCell id="16TBc1RyOengqVH6E9E0-8" value="" style="whiteSpace=wrap;html=1;aspect=fixed;" vertex="1" parent="1">
          <mxGeometry x="300" y="180" width="130" height="130" as="geometry" />
        </mxCell>
        <mxCell id="16TBc1RyOengqVH6E9E0-9" value="L2" style="rounded=0;whiteSpace=wrap;html=1;fontSize=18;fillColor=#ffe6cc;strokeColor=#d79b00;" vertex="1" parent="1">
          <mxGeometry x="310" y="260" width="110" height="30" as="geometry" />
        </mxCell>
        <mxCell id="16TBc1RyOengqVH6E9E0-10" value="&lt;font style=&quot;font-size: 18px&quot;&gt;L1 D&lt;/font&gt;" style="rounded=0;whiteSpace=wrap;html=1;fontSize=18;fillColor=#ffe6cc;strokeColor=#d79b00;" vertex="1" parent="1">
          <mxGeometry x="370" y="210" width="50" height="30" as="geometry" />
        </mxCell>
        <mxCell id="16TBc1RyOengqVH6E9E0-11" value="&lt;font style=&quot;font-size: 18px&quot;&gt;L1 I&lt;/font&gt;" style="rounded=0;whiteSpace=wrap;html=1;fontSize=18;fillColor=#ffe6cc;strokeColor=#d79b00;" vertex="1" parent="1">
          <mxGeometry x="310" y="210" width="50" height="30" as="geometry" />
        </mxCell>
        <mxCell id="16TBc1RyOengqVH6E9E0-12" value="LLC" style="rounded=0;whiteSpace=wrap;html=1;fontSize=18;fillColor=#ffe6cc;strokeColor=#d79b00;" vertex="1" parent="1">
          <mxGeometry x="140" y="340" width="290" height="50" as="geometry" />
        </mxCell>
        <mxCell id="16TBc1RyOengqVH6E9E0-13" value="NVM" style="rounded=0;whiteSpace=wrap;html=1;fontSize=18;fillColor=#d5e8d4;strokeColor=#82b366;" vertex="1" parent="1">
          <mxGeometry x="120" y="505" width="340" height="80" as="geometry" />
        </mxCell>
        <mxCell id="16TBc1RyOengqVH6E9E0-23" style="edgeStyle=none;rounded=0;orthogonalLoop=1;jettySize=auto;html=1;exitX=0.5;exitY=1;exitDx=0;exitDy=0;fontSize=18;startArrow=blockThin;startFill=1;endArrow=classicThin;endFill=1;strokeWidth=2;" edge="1" parent="1" source="16TBc1RyOengqVH6E9E0-14">
          <mxGeometry relative="1" as="geometry">
            <mxPoint x="285" y="510" as="targetPoint" />
          </mxGeometry>
        </mxCell>
        <mxCell id="16TBc1RyOengqVH6E9E0-14" value="MC" style="rounded=0;whiteSpace=wrap;html=1;fontSize=18;fillColor=#dae8fc;strokeColor=#6c8ebf;" vertex="1" parent="1">
          <mxGeometry x="140" y="420" width="290" height="40" as="geometry" />
        </mxCell>
        <mxCell id="16TBc1RyOengqVH6E9E0-16" value="WPQ" style="rounded=0;whiteSpace=wrap;html=1;fontSize=18;fillColor=#f8cecc;strokeColor=#b85450;" vertex="1" parent="1">
          <mxGeometry x="330" y="430" width="90" height="20" as="geometry" />
        </mxCell>
        <mxCell id="16TBc1RyOengqVH6E9E0-19" style="rounded=0;orthogonalLoop=1;jettySize=auto;html=1;exitX=0.5;exitY=1;exitDx=0;exitDy=0;entryX=0.228;entryY=0;entryDx=0;entryDy=0;entryPerimeter=0;fontSize=18;startArrow=blockThin;startFill=1;endArrow=classicThin;endFill=1;strokeWidth=2;" edge="1" parent="1">
          <mxGeometry relative="1" as="geometry">
            <mxPoint x="364.44" y="310" as="sourcePoint" />
            <mxPoint x="365.5599999999999" y="340" as="targetPoint" />
          </mxGeometry>
        </mxCell>
        <mxCell id="16TBc1RyOengqVH6E9E0-20" style="rounded=0;orthogonalLoop=1;jettySize=auto;html=1;exitX=0.5;exitY=1;exitDx=0;exitDy=0;entryX=0.228;entryY=0;entryDx=0;entryDy=0;entryPerimeter=0;fontSize=18;startArrow=blockThin;startFill=1;endArrow=classicThin;endFill=1;strokeWidth=2;" edge="1" parent="1">
          <mxGeometry relative="1" as="geometry">
            <mxPoint x="284.00000000000006" y="390" as="sourcePoint" />
            <mxPoint x="285.11999999999995" y="420" as="targetPoint" />
          </mxGeometry>
        </mxCell>
        <mxCell id="16TBc1RyOengqVH6E9E0-28" value="" style="endArrow=classic;startArrow=classic;html=1;fontSize=18;strokeWidth=2;" edge="1" parent="1">
          <mxGeometry width="50" height="50" relative="1" as="geometry">
            <mxPoint x="474" y="580" as="sourcePoint" />
            <mxPoint x="474" y="420" as="targetPoint" />
          </mxGeometry>
        </mxCell>
        <mxCell id="16TBc1RyOengqVH6E9E0-30" value="ADR" style="text;html=1;strokeColor=none;fillColor=none;align=center;verticalAlign=middle;whiteSpace=wrap;rounded=0;fontSize=18;rotation=270;" vertex="1" parent="1">
          <mxGeometry x="468" y="490" width="40" height="20" as="geometry" />
        </mxCell>
      </root>
    </mxGraphModel>
  </diagram>
</mxfile>
